<svg id="Layer_1" data-name="Layer 1" xmlns="http://www.w3.org/2000/svg" viewBox="0 0 1563 1563"><defs><style>.cls-1{fill:#303035;}.cls-2{fill:#73ba5b;}.cls-3{fill:#558444;}.cls-4,.cls-5,.cls-6{fill:#b9bcb7;}.cls-4{opacity:0.43;}.cls-5{opacity:0.68;}</style></defs><path class="cls-1" d="M1742,939.5c0,431.61-349.89,781.5-781.5,781.5-234,0-444-102.88-587.27-265.88A778.52,778.52,0,0,1,179,939.5C179,507.89,528.89,158,960.5,158a777.77,777.77,0,0,1,422.16,123.73C1598.82,420.74,1742,663.4,1742,939.5Z" transform="translate(-179 -158)"/><path class="cls-2" d="M805.55,839.92" transform="translate(-179 -158)"/><path class="cls-2" d="M1742,939.5c0,431.61-349.89,781.5-781.5,781.5-234,0-444-102.88-587.27-265.88a487.83,487.83,0,0,1-29.41-101.9C308.66,1151.63,398,932.4,542.76,836.15c156.5-104,459.94-119,566.79-137.82,0,0,22.49-3.89,60.85-12.64a167,167,0,0,0,25.79-8.05c5.56-2.23,10.07-4,14.11-6.08a56.65,56.65,0,0,0,11.28-7.3s14.59-7.24,20.16-33.39c4.13-19.34-19.89-63.1-77.6-98.52-.63-.4-1.27-.79-1.91-1.17-88.49-53.35-180.58-42.33-181.29-42.67,1.33-.68,94.58-17.38,198.71,11.85,39.91,11.21,81.41,29.16,120,57.34,11.44,8.37,116.81,89.54,97,148.77-10.21,30.56-59.47,45.55-158,75.5-24.65,7.5-40.48,11.36-55.13,15l-.11,0c-15.55,3.91-29.8,7.63-51.92,15.28q-4.87,1.68-10.31,3.64s-68,23.79-117.28,61.32c-3.52,2.68-7.25,5.53-11.13,8.59-16.64,13.11-36.08,30-53.85,53A243.26,243.26,0,0,0,912,982.76c-10.53,22.1-32.5,68.18-24.25,119.81q.81,5.07,2,10.2a136.43,136.43,0,0,0,6,19.13c.39,1,.79,2,1.2,2.92.53,1.27,1.08,2.52,1.65,3.76s1.12,2.42,1.72,3.61c9.57,19.48,22.94,35.44,37.09,48.34l.14.13c.8.73,1.6,1.45,2.41,2.15.45.41.92.81,1.38,1.21l.12.11c.35.31.71.61,1.06.9.86.74,1.71,1.46,2.57,2.16l.11.1,2.17,1.76.3.23,2,1.57,1.27,1,1.9,1.44.47.36,1.89,1.39c1.09.79,2.17,1.57,3.26,2.34l1.12.79.93.63c.21.16.42.3.63.44.4.28.81.55,1.21.81,2.41,1.64,4.8,3.19,7.14,4.65l1.84,1.14,1.54.94c.47.3.94.58,1.41.86l1.81,1.06,1.12.65c.51.3,1,.59,1.52.87.69.4,1.37.78,2,1.15s1.63.91,2.44,1.35l1.69.92,2.57,1.35,3,1.56c1,.51,1.94,1,2.87,1.44l0,0,3.51,1.71,2.58,1.21,1.45.67c2,.92,3.73,1.71,5.18,2.36,45.65,20.51,93.3,24.28,137.85,19.38,95.63-10.51,177-60.93,193.78-71.33,177.66-110.1,222.7-306.1,232.28-347.78a586.62,586.62,0,0,0,13-176.63c-.11-.75-.22-1.5-.34-2.27s-.21-1.37-.32-2.07-.26-1.71-.4-2.57-.23-1.44-.34-2.16a1.7,1.7,0,0,1,0-.22c-.13-.8-.26-1.61-.4-2.42q-.6-3.64-1.29-7.47c-.15-.85-.3-1.7-.46-2.56-1.41-7.73-3.05-15.93-5-24.55-.21-1-.43-1.92-.65-2.89q-1.37-6-2.94-12.35c-.2-.84-.41-1.68-.64-2.53q-.66-2.67-1.38-5.38l-.72-2.71c-.24-.91-.49-1.83-.74-2.74-.14-.52-.28-1.05-.43-1.58-.29-1.05-.58-2.11-.88-3.17s-.66-2.38-1-3.59l-.81-2.82c-.15-.51-.3-1-.46-1.56q-1.2-4.08-2.49-8.25c-.08-.28-.17-.57-.26-.86-.24-.81-.5-1.62-.76-2.44-.56-1.77-1.12-3.54-1.7-5.33l-.45-1.38c-.36-1.12-.73-2.25-1.12-3.38-.06-.21-.13-.41-.2-.62-.31-.93-.62-1.85-.94-2.78q-.57-1.71-1.17-3.42c-.32-.94-.64-1.88-1-2.82-.49-1.41-1-2.83-1.51-4.25-.39-1.1-.79-2.21-1.2-3.32s-.85-2.33-1.29-3.5q-4.56-12.3-9.9-25c-.38-.91-.76-1.82-1.15-2.73-.14-.3-.27-.61-.4-.91l-.35-.83c-.4-.94-.8-1.88-1.22-2.82-.53-1.22-1.07-2.44-1.61-3.67l-1.64-3.68-1.47-3.23c-.07-.15-.14-.31-.22-.46q-5.57-12.16-11.93-24.57c-.52-1-1.06-2.07-1.6-3.1-.09-.19-.19-.38-.29-.57-.29-.57-.58-1.13-.88-1.69l0-.05q-7.83-14.93-16.87-30.09a615.14,615.14,0,0,0-117.48-142.48C1598.82,420.74,1742,663.4,1742,939.5Z" transform="translate(-179 -158)"/><path class="cls-3" d="M1222.11,1481c-113.45,29.65-211.75,4.09-248.19-7.29-50.75-15.85-156.86-49-220.31-155.1-55.14-92.24-71.49-228.32-14.31-329.63,67-118.69,217.44-154.79,469.52-215.29,56.91-13.66,104.94-22.53,139-28.18-11.29,4.21-28.3,10.38-49.17,17.28-32.12,10.61-54.72,16.8-79.35,23.82-23.41,6.68-56.92,16.47-98.17,29.36,0,0-68,23.79-117.28,61.32-3.52,2.68-7.25,5.53-11.13,8.59-16.64,13.11-36.08,30-53.85,53A243.26,243.26,0,0,0,912,982.76c-10.53,22.1-32.5,68.18-24.25,119.81q.81,5.07,2,10.2a136.43,136.43,0,0,0,6,19.13c9.59,24.22,25.09,43.53,41.66,58.63,27.1,24.72,57.06,38.18,68.69,43.41,45.65,20.51,93.3,24.28,137.85,19.38,95.63-10.51,177-60.93,193.78-71.33,177.66-110.1,222.7-306.1,232.28-347.78a586.62,586.62,0,0,0,13-176.63,638.63,638.63,0,0,0-66-203.28,745.58,745.58,0,0,1,79.51,174.38c60.56,196.1,25.73,364.83,7.4,434.18C1595.66,1094.09,1491.94,1410.46,1222.11,1481Z" transform="translate(-179 -158)"/><path class="cls-2" d="M805.55,839.92" transform="translate(-179 -158)"/><circle class="cls-4" cx="108.5" cy="912.5" r="48.5"/><circle class="cls-5" cx="134" cy="696" r="68"/><circle class="cls-6" cx="277.5" cy="481.5" r="95.5"/></svg>